<?xml version="1.0" standalone="no"?><svg xmlns="http://www.w3.org/2000/svg" viewBox="0 0 1440 320"><path fill="#F0F4F5" fill-opacity="1" d="M0,32L24,37.3C48,43,96,53,144,69.3C192,85,240,107,288,112C336,117,384,107,432,122.7C480,139,528,181,576,170.7C624,160,672,96,720,80C768,64,816,96,864,138.7C912,181,960,235,1008,250.7C1056,267,1104,245,1152,218.7C1200,192,1248,160,1296,154.7C1344,149,1392,171,1416,181.3L1440,192L1440,320L1416,320C1392,320,1344,320,1296,320C1248,320,1200,320,1152,320C1104,320,1056,320,1008,320C960,320,912,320,864,320C816,320,768,320,720,320C672,320,624,320,576,320C528,320,480,320,432,320C384,320,336,320,288,320C240,320,192,320,144,320C96,320,48,320,24,320L0,320Z"></path></svg>